# xmcd
#
# Track frame offsets:
#	150
#	12286
#	22175
#	32145
#	39781
#	49077
#	60731
#	72377
#	82461
#	93980
#	105440
#	115665
#	124437
#	132726
#	142305
#	151927
#
# Disc length: 2160 seconds
#
# Revision: 0
# Processed by: cddbd v1.5.2PL0 Copyright (c) Steve Scherf et al.
# Submitted via: EasyCDDAExtractor 2010.6.0.0
#
DISCID=e8086e10
DTITLE=Johnny Cash - The Collection. CD 3
DYEAR=2010
DGENRE=Gospel, R&R, Country
TTITLE0=I Walk The Line
TTITLE1=Ballad Of A Teenage Queen
TTITLE2=Get Rhythm
TTITLE3=Hey Good Looking
TTITLE4=I Couldn't Keep From Crying
TTITLE5=Doin My Time
TTITLE6=So Doggone Lonesome
TTITLE7=The Ways Of A Woman In Love
TTITLE8=I Still Miss Someone
TTITLE9=Don't Step On Mother's Roses
TTITLE10=These Things Shall Pass
TTITLE11=Pickin' Time
TTITLE12=That's All Over
TTITLE13=Man On The Hill
TTITLE14=Great Speckled Bird
TTITLE15=The Troubadour
EXTD=
EXTT0=
EXTT1=
EXTT2=
EXTT3=
EXTT4=
EXTT5=
EXTT6=
EXTT7=
EXTT8=
EXTT9=
EXTT10=
EXTT11=
EXTT12=
EXTT13=
EXTT14=
EXTT15=
PLAYORDER=
